<?xml version="1.0" encoding="UTF-8" standalone="no"?>
<!-- Created with Inkscape (http://www.inkscape.org/) -->

<svg
   width="40.021362mm"
   height="8.2070312mm"
   viewBox="0 0 40.021362 8.2070312"
   version="1.1"
   id="svg5"
   inkscape:version="1.2.1 (9c6d41e, 2022-07-14)"
   sodipodi:docname="habitat-logo.svg"
   xml:space="preserve"
   xmlns:inkscape="http://www.inkscape.org/namespaces/inkscape"
   xmlns:sodipodi="http://sodipodi.sourceforge.net/DTD/sodipodi-0.dtd"
   xmlns="http://www.w3.org/2000/svg"
   xmlns:svg="http://www.w3.org/2000/svg"><sodipodi:namedview
     id="namedview7"
     pagecolor="#ffffff"
     bordercolor="#000000"
     borderopacity="0.25"
     inkscape:showpageshadow="2"
     inkscape:pageopacity="0.0"
     inkscape:pagecheckerboard="0"
     inkscape:deskcolor="#d1d1d1"
     inkscape:document-units="mm"
     showgrid="false"
     inkscape:zoom="0.33151647"
     inkscape:cx="2289.479"
     inkscape:cy="603.28828"
     inkscape:window-width="1728"
     inkscape:window-height="950"
     inkscape:window-x="440"
     inkscape:window-y="1725"
     inkscape:window-maximized="0"
     inkscape:current-layer="layer1"
     showguides="false"><inkscape:grid
       type="xygrid"
       id="grid1280" /></sodipodi:namedview><defs
     id="defs2" /><g
     inkscape:label="Layer 1"
     inkscape:groupmode="layer"
     id="layer1"
     transform="translate(-585.91615,-395.08391)"><g
       id="g771"><g
         aria-label="habitat"
         id="text384"
         style="font-size:11.2889px;letter-spacing:-0.611188px;stroke:#000000;stroke-width:0"
         inkscape:export-filename="habitat.svg"
         inkscape:export-xdpi="96"
         inkscape:export-ydpi="96"><path
           d="m 585.91618,395.08388 h 0.84667 v 3.2512 q 0.27093,-0.4064 0.73378,-0.62089 0.46284,-0.22578 1.03858,-0.22578 0.62089,0 1.10631,0.28222 0.48542,0.28223 0.75635,0.83538 0.28223,0.55316 0.28223,1.37725 v 3.22862 h -0.90311 v -3.12702 q 0,-0.88054 -0.37254,-1.34338 -0.37253,-0.47413 -1.08373,-0.47413 -0.73378,0 -1.15147,0.49671 -0.4064,0.49671 -0.4064,1.44498 v 3.00284 h -0.84667 z"
           style="font-family:'Albert Sans';-inkscape-font-specification:'Albert Sans'"
           id="path1123" /><path
           d="m 595.23922,403.21188 -0.0677,-1.016 q -0.23707,0.51929 -0.69992,0.8128 -0.46284,0.28223 -1.17404,0.28223 -0.6096,0 -1.03858,-0.19192 -0.42898,-0.19191 -0.66605,-0.54186 -0.22577,-0.36125 -0.22577,-0.84667 0,-0.7112 0.53057,-1.16276 0.53058,-0.46284 1.5353,-0.56444 l 1.73849,-0.19191 v -0.45156 q 0,-0.47413 -0.34996,-0.75636 -0.34996,-0.29351 -0.94827,-0.29351 -0.58702,0 -0.98213,0.27094 -0.38382,0.27093 -0.53058,0.77893 l -0.76765,-0.27093 q 0.22578,-0.74507 0.82409,-1.16276 0.60961,-0.41769 1.47885,-0.41769 1.00471,0 1.55787,0.51929 0.56444,0.508 0.56444,1.38854 v 3.81564 z m -0.0677,-2.69804 -1.74978,0.2032 q -0.56445,0.0677 -0.85796,0.31609 -0.29351,0.23706 -0.29351,0.63217 0,0.39512 0.28222,0.63218 0.29351,0.23707 0.83538,0.23707 0.62089,0 1.016,-0.24836 0.39511,-0.24835 0.57573,-0.66604 0.19192,-0.42898 0.19192,-0.92569 z"
           style="font-family:'Albert Sans';-inkscape-font-specification:'Albert Sans'"
           id="path1125" /><path
           d="m 597.8115,398.70761 q 0.24836,-0.51929 0.77893,-0.86924 0.53058,-0.34996 1.34338,-0.34996 0.77894,0 1.35467,0.36125 0.58702,0.36124 0.90311,1.016 0.32738,0.64346 0.32738,1.524 0,0.88053 -0.32738,1.53529 -0.32738,0.65476 -0.9144,1.016 -0.57573,0.34996 -1.34338,0.34996 -0.76764,0 -1.27564,-0.32738 -0.508,-0.32738 -0.76765,-0.80151 l -0.0564,1.04986 h -0.77894 v -8.128 h 0.84667 v 3.63502 z m 3.79307,1.68205 q 0,-0.97085 -0.508,-1.53529 -0.49671,-0.57574 -1.34338,-0.57574 -0.53058,0 -0.95956,0.25965 -0.41769,0.24835 -0.65475,0.72249 -0.23707,0.46284 -0.23707,1.12889 0,0.66604 0.23707,1.14018 0.23706,0.47413 0.65475,0.72249 0.42898,0.24835 0.95956,0.24835 0.84667,0 1.34338,-0.56444 0.508,-0.57574 0.508,-1.54658 z"
           style="font-family:'Albert Sans';-inkscape-font-specification:'Albert Sans'"
           id="path1127" /><path
           d="m 603.45435,397.56743 h 0.83538 v 5.64445 h -0.83538 z m 0.42898,-1.12889 q -0.25965,0 -0.42898,-0.16933 -0.16933,-0.16933 -0.16933,-0.41769 0,-0.25964 0.16933,-0.42898 0.16933,-0.16933 0.42898,-0.16933 0.23707,0 0.4064,0.16933 0.18062,0.16934 0.18062,0.42898 0,0.24836 -0.18062,0.41769 -0.16933,0.16933 -0.4064,0.16933 z"
           style="font-family:'Albert Sans';-inkscape-font-specification:'Albert Sans'"
           id="path1129" /><path
           d="m 605.9476,397.56743 v -1.58044 h 0.84667 v 1.58044 h 1.50142 v 0.79023 h -1.50142 v 3.03671 q 0,0.51929 0.21449,0.75636 0.22578,0.23706 0.56445,0.28222 0.34995,0.0452 0.72248,0 v 0.73378 q -0.44026,0.1016 -0.86924,0.0564 -0.41769,-0.0451 -0.75636,-0.24835 -0.32737,-0.21449 -0.53058,-0.59832 -0.19191,-0.38382 -0.19191,-0.98213 v -3.03671 h -0.84666 v -0.79023 z"
           style="font-family:'Albert Sans';-inkscape-font-specification:'Albert Sans'"
           id="path1131" /><path
           d="m 612.48228,403.21188 -0.0677,-1.016 q -0.23707,0.51929 -0.69991,0.8128 -0.46285,0.28223 -1.17405,0.28223 -0.6096,0 -1.03858,-0.19192 -0.42898,-0.19191 -0.66604,-0.54186 -0.22578,-0.36125 -0.22578,-0.84667 0,-0.7112 0.53058,-1.16276 0.53058,-0.46284 1.53529,-0.56444 l 1.73849,-0.19191 v -0.45156 q 0,-0.47413 -0.34996,-0.75636 -0.34995,-0.29351 -0.94826,-0.29351 -0.58703,0 -0.98214,0.27094 -0.38382,0.27093 -0.53058,0.77893 l -0.76764,-0.27093 q 0.22578,-0.74507 0.82409,-1.16276 0.6096,-0.41769 1.47884,-0.41769 1.00471,0 1.55787,0.51929 0.56445,0.508 0.56445,1.38854 v 3.81564 z m -0.0677,-2.69804 -1.74978,0.2032 q -0.56445,0.0677 -0.85796,0.31609 -0.29351,0.23706 -0.29351,0.63217 0,0.39512 0.28222,0.63218 0.29352,0.23707 0.83538,0.23707 0.62089,0 1.016,-0.24836 0.39511,-0.24835 0.57574,-0.66604 0.19191,-0.42898 0.19191,-0.92569 z"
           style="font-family:'Albert Sans';-inkscape-font-specification:'Albert Sans'"
           id="path1133" /><path
           d="m 614.65945,397.56743 v -1.58044 h 0.84667 v 1.58044 h 1.50142 v 0.79023 h -1.50142 v 3.03671 q 0,0.51929 0.21449,0.75636 0.22578,0.23706 0.56444,0.28222 0.34996,0.0452 0.72249,0 v 0.73378 q -0.44026,0.1016 -0.86924,0.0564 -0.41769,-0.0451 -0.75636,-0.24835 -0.32738,-0.21449 -0.53058,-0.59832 -0.19191,-0.38382 -0.19191,-0.98213 v -3.03671 h -0.84667 v -0.79023 z"
           style="font-family:'Albert Sans';-inkscape-font-specification:'Albert Sans'"
           id="path1135" /></g><g
         id="g763"
         transform="matrix(0.09370661,0,0,0.09370661,564.8328,402.45227)"><g
           id="g761"
           transform="translate(-36.017743,-161.67615)"><path
             id="path757"
             style="fill:#008000;fill-opacity:1;stroke:#000000;stroke-width:0"
             d="m 654.23686,106.70414 c -4.69052,0 -8.46666,3.77614 -8.46666,8.46666 v 25.4 h 16.93333 c 14.07159,0 25.4,-11.32841 25.4,-25.4 v -8.46666 z" /><path
             id="path759"
             style="fill:#008000;fill-opacity:1;stroke:#000000;stroke-width:0"
             d="m 603.43665,85.537454 v 33.866656 c 0,4.69052 3.77615,8.46667 8.46667,8.46667 h 8.46667 c 4.69052,0 8.46666,3.77614 8.46666,8.46667 v 33.86666 h 8.46667 v -42.33333 -16.93333 c 0,-14.071576 -11.32842,-25.399996 -25.4,-25.399996 z" /></g></g></g></g></svg>
