<svg width="363" height="110" viewBox="0 0 363 110" fill="none" xmlns="http://www.w3.org/2000/svg">
<path d="M80 31C80 44.2548 69.2548 55 56 55H40V31C40 26.5817 43.5817 23 48 23H80V31Z" fill="#1B3314"/>
<path d="M32 87H24V55C24 50.5817 20.4183 47 16 47H8C3.58172 47 0 43.4183 0 39V7H8C21.2548 7 32 17.7452 32 31V87Z" fill="#1B3314"/>
<path d="M86.716 22.6H97.664V49.832H128.024V22.6H138.88V87H128.024V58.94H97.664V87H86.716V22.6ZM173.736 87L172.816 81.388C171.344 83.3507 169.596 84.8533 167.572 85.896C165.548 86.9387 162.849 87.46 159.476 87.46C156.286 87.46 153.526 86.9387 151.196 85.896C148.865 84.792 147.056 83.2893 145.768 81.388C144.541 79.4253 143.928 77.156 143.928 74.58C143.928 70.716 145.338 67.496 148.16 64.92C151.042 62.2827 155.244 60.6573 160.764 60.044L172.816 58.756V55.168C172.816 53.696 172.172 52.3773 170.884 51.212C169.596 49.9853 167.541 49.372 164.72 49.372C162.266 49.372 160.12 49.9853 158.28 51.212C156.501 52.3773 155.305 54.156 154.692 56.548L145.676 53.236C146.841 49.188 149.141 46.0293 152.576 43.76C156.072 41.4907 160.304 40.356 165.272 40.356C171.282 40.356 175.79 41.8587 178.796 44.864C181.801 47.8693 183.304 51.7027 183.304 56.364V87H173.736ZM172.816 66.76L161.776 68.14C159.445 68.4467 157.697 69.1213 156.532 70.164C155.366 71.1453 154.784 72.4027 154.784 73.936C154.784 75.3467 155.336 76.5733 156.44 77.616C157.605 78.5973 159.169 79.088 161.132 79.088C163.646 79.088 165.762 78.628 167.48 77.708C169.258 76.788 170.577 75.4693 171.436 73.752C172.356 72.0347 172.816 69.9187 172.816 67.404V66.76ZM199.435 47.808C200.907 45.7227 202.993 43.9747 205.691 42.564C208.39 41.092 211.579 40.356 215.259 40.356C219.307 40.356 222.865 41.3373 225.931 43.3C228.998 45.2627 231.39 48.0227 233.107 51.58C234.886 55.1373 235.775 59.2773 235.775 64C235.775 68.7227 234.886 72.8627 233.107 76.42C231.39 79.9773 228.967 82.7373 225.839 84.7C222.773 86.6627 219.246 87.644 215.259 87.644C211.763 87.644 208.789 87.0307 206.335 85.804C203.882 84.5773 201.889 83.0747 200.355 81.296L199.619 87H190.235V20.76H200.631V48.084L199.435 47.808ZM224.643 64C224.643 59.768 223.509 56.3333 221.239 53.696C219.031 51.0587 216.179 49.74 212.683 49.74C210.475 49.74 208.451 50.292 206.611 51.396C204.833 52.5 203.391 54.1253 202.287 56.272C201.183 58.3573 200.631 60.9333 200.631 64C200.631 67.0667 201.183 69.6733 202.287 71.82C203.391 73.9053 204.833 75.5 206.611 76.604C208.451 77.708 210.475 78.26 212.683 78.26C216.179 78.26 219.031 76.9413 221.239 74.304C223.509 71.6667 224.643 68.232 224.643 64ZM241.822 41H252.218V87H241.822V41ZM247.066 34.008C245.165 34.008 243.57 33.364 242.282 32.076C240.994 30.788 240.35 29.2547 240.35 27.476C240.35 25.5747 240.994 23.98 242.282 22.692C243.57 21.404 245.165 20.76 247.066 20.76C248.906 20.76 250.47 21.404 251.758 22.692C253.046 23.98 253.69 25.5747 253.69 27.476C253.69 29.2547 253.046 30.788 251.758 32.076C250.47 33.364 248.906 34.008 247.066 34.008ZM265.22 41V28.12H275.8V41H286.564V50.108H275.8V70.532C275.8 73.292 276.321 75.224 277.364 76.328C278.406 77.3707 279.756 77.9533 281.412 78.076C283.129 78.1373 284.846 78.0453 286.564 77.8V86.632C283.926 87.184 281.32 87.3373 278.744 87.092C276.229 86.908 273.96 86.2333 271.936 85.068C269.912 83.8413 268.286 82.0627 267.06 79.732C265.833 77.4013 265.22 74.3347 265.22 70.532V50.108H258.78V41H265.22ZM320.174 87L319.254 81.388C317.782 83.3507 316.034 84.8533 314.01 85.896C311.986 86.9387 309.287 87.46 305.914 87.46C302.725 87.46 299.965 86.9387 297.634 85.896C295.303 84.792 293.494 83.2893 292.206 81.388C290.979 79.4253 290.366 77.156 290.366 74.58C290.366 70.716 291.777 67.496 294.598 64.92C297.481 62.2827 301.682 60.6573 307.202 60.044L319.254 58.756V55.168C319.254 53.696 318.61 52.3773 317.322 51.212C316.034 49.9853 313.979 49.372 311.158 49.372C308.705 49.372 306.558 49.9853 304.718 51.212C302.939 52.3773 301.743 54.156 301.13 56.548L292.114 53.236C293.279 49.188 295.579 46.0293 299.014 43.76C302.51 41.4907 306.742 40.356 311.71 40.356C317.721 40.356 322.229 41.8587 325.234 44.864C328.239 47.8693 329.742 51.7027 329.742 56.364V87H320.174ZM319.254 66.76L308.214 68.14C305.883 68.4467 304.135 69.1213 302.97 70.164C301.805 71.1453 301.222 72.4027 301.222 73.936C301.222 75.3467 301.774 76.5733 302.878 77.616C304.043 78.5973 305.607 79.088 307.57 79.088C310.085 79.088 312.201 78.628 313.918 77.708C315.697 76.788 317.015 75.4693 317.874 73.752C318.794 72.0347 319.254 69.9187 319.254 67.404V66.76ZM338.698 41V28.12H349.278V41H360.042V50.108H349.278V70.532C349.278 73.292 349.799 75.224 350.842 76.328C351.884 77.3707 353.234 77.9533 354.89 78.076C356.607 78.1373 358.324 78.0453 360.042 77.8V86.632C357.404 87.184 354.798 87.3373 352.222 87.092C349.707 86.908 347.438 86.2333 345.414 85.068C343.39 83.8413 341.764 82.0627 340.538 79.732C339.311 77.4013 338.698 74.3347 338.698 70.532V50.108H332.258V41H338.698Z" fill="#1B3314"/>
</svg>
